# xmcd
#
# Track frame offsets:
#	150
#	13330
#	26757
#	39350
#	50665
#	63040
#	77485
#	91685
#	103542
#	118692
#	132657
#	145320
#	158462
#	170510
#	185615
#
# Disc length: 2621 seconds
# Revision: 6
# Processed by: cddbd v1.5.2PL0 Copyright (c) Steve Scherf et al.
# Submitted via: dBpowerAMP V12.0
#
DISCID=c10a3b0f
DTITLE=Big Sandy and His Fly-Rite Boys - Swingin' West
DYEAR=1995
DGENRE=Rock
TTITLE0=Let Me in There, Baby
TTITLE1=Music to Her Ears
TTITLE2=You Don't Matter Anymore
TTITLE3=My Sinful Days Are Over
TTITLE4=Parts Unknown
TTITLE5=Too Late to Be True
TTITLE6=Hey Muchachita
TTITLE7=Why Do You Have to Torture Me?
TTITLE8=Blackberry Wine
TTITLE9=Murphy's Law
TTITLE10=If I Wrote a Song (About Our Love Affair)
TTITLE11=We Tried to Tell You
TTITLE12=You Say You Don't (But You Do)
TTITLE13=A Healer Like Time
TTITLE14=The New Ball
EXTD=
EXTT0=
EXTT1=
EXTT2=
EXTT3=
EXTT4=
EXTT5=
EXTT6=
EXTT7=
EXTT8=
EXTT9=
EXTT10=
EXTT11=
EXTT12=
EXTT13=
EXTT14=
PLAYORDER=
